<svg width="15" height="14" viewBox="0 0 15 14" fill="none" xmlns="http://www.w3.org/2000/svg">
<path fill-rule="evenodd" clip-rule="evenodd" d="M10.792 0.0463871L1.41699 0.0463867C1.25123 0.0463867 1.09226 0.112235 0.97505 0.229445C0.85784 0.346655 0.791992 0.505626 0.791992 0.671387V10.0464C0.791992 10.3916 1.07181 10.6714 1.41699 10.6714C1.76217 10.6714 2.04199 10.3916 2.04199 10.0464V2.18027L13.4751 13.6133C13.7191 13.8574 14.1149 13.8574 14.3589 13.6133C14.603 13.3693 14.603 12.9735 14.3589 12.7294L2.92588 1.29639L10.792 1.29639C11.1372 1.29639 11.417 1.01657 11.417 0.671387C11.417 0.326209 11.1372 0.0463871 10.792 0.0463871Z" fill="#BA9D6E"/>
</svg>
