<svg width="48" height="49" viewBox="0 0 48 49" fill="none" xmlns="http://www.w3.org/2000/svg">
<path d="M0 24.5C0 11.2452 10.7452 0.5 24 0.5C37.2548 0.5 48 11.2452 48 24.5C48 37.7548 37.2548 48.5 24 48.5C10.7452 48.5 0 37.7548 0 24.5Z" fill="#DCFAE6"/>
<path d="M19.5 24.5L22.5 27.5L28.5 21.5M34 24.5C34 30.0228 29.5228 34.5 24 34.5C18.4772 34.5 14 30.0228 14 24.5C14 18.9772 18.4772 14.5 24 14.5C29.5228 14.5 34 18.9772 34 24.5Z" stroke="#079455" stroke-width="2" stroke-linecap="round" stroke-linejoin="round"/>
</svg>
