<svg width="16" height="16" viewBox="0 0 16 16" fill="none" xmlns="http://www.w3.org/2000/svg">
<path d="M14.1514 0.920917L7.65137 0.920917C6.82294 0.920917 6.15137 1.59249 6.15137 2.42092L6.15137 4.42092L8.15137 4.42092L1.65137 4.42092C0.801367 4.42092 0.151367 5.07092 0.151367 5.92092L0.151367 11.4209C0.151367 12.2709 0.801367 12.9209 1.65137 12.9209L2.15137 12.9209L2.15137 15.4709L5.30137 12.9209L7.15137 12.9209C7.97979 12.9209 8.65137 12.2493 8.65137 11.4209L8.65137 9.42092L14.1514 9.42092C15.0014 9.42092 15.6514 8.77092 15.6514 7.92092L15.6514 2.42092C15.6514 1.57092 15.0014 0.920917 14.1514 0.920917ZM5.55137 10.8709L5.30137 10.0709L3.75137 10.0709L3.45137 10.8709L2.25137 10.8709L3.90137 6.42092L5.10137 6.42092L6.75137 10.8709L5.55137 10.8709ZM13.1514 6.92092L13.1514 7.92092C12.5014 7.92092 11.8014 7.72092 11.2014 7.42092C10.6014 7.72092 9.90137 7.87092 9.20137 7.92092L9.15137 6.92092C9.50137 6.92092 9.85137 6.87092 10.2014 6.77092C9.75137 6.32092 9.45137 5.77092 9.30137 5.17092L10.3514 5.17092C10.5014 5.62092 10.8014 5.97092 11.1514 6.27092C11.7014 5.82092 12.0514 5.17092 12.1014 4.42092L9.10137 4.42092L9.10137 3.42092L10.6014 3.42092L10.6014 2.42092L11.6014 2.42092L11.6014 3.42092L13.2514 3.42092L13.3014 3.92092C13.3514 4.97092 12.9514 6.02092 12.2014 6.77092C12.5514 6.87092 12.8514 6.92092 13.1514 6.92092Z" fill="white"/>
</svg>
