<svg width="15" height="16" viewBox="0 0 15 16" fill="none" xmlns="http://www.w3.org/2000/svg">
<path fill-rule="evenodd" clip-rule="evenodd" d="M7.97135 1.68652C11.193 1.68652 13.8047 4.2982 13.8047 7.51986C13.8047 10.7415 11.193 13.3532 7.97135 13.3532C4.74969 13.3532 2.13802 10.7415 2.13802 7.51986C2.13802 4.2982 4.74969 1.68652 7.97135 1.68652ZM14.8047 7.51986C14.8047 3.74591 11.7453 0.686523 7.97135 0.686523C4.19741 0.686523 1.13802 3.74591 1.13802 7.51986C1.13802 11.2938 4.19741 14.3532 7.97135 14.3532C11.7453 14.3532 14.8047 11.2938 14.8047 7.51986ZM2.65824 12.833C2.46298 12.6377 2.1464 12.6377 1.95113 12.833L0.6178 14.1663C0.422539 14.3616 0.422539 14.6781 0.6178 14.8734C0.813063 15.0687 1.12964 15.0687 1.32491 14.8734L2.65824 13.5401C2.8535 13.3448 2.8535 13.0282 2.65824 12.833Z" fill="white"/>
</svg>
